<?xml version="1.0" encoding="utf-8"?>
<!-- Generator: Adobe Illustrator 19.0.0, SVG Export Plug-In . SVG Version: 6.00 Build 0)  -->
<svg version="1.1" id="图层_1" xmlns="http://www.w3.org/2000/svg" xmlns:xlink="http://www.w3.org/1999/xlink" x="0px" y="0px"
	 width="271px" height="62.3px" viewBox="0 0 271 62.3" style="enable-background:new 0 0 271 62.3;" xml:space="preserve">
<style type="text/css">
	.st0{fill:#5E21E4;}
	.st1{fill:#1AFDBF;}
</style>
<path id="XMLID_3_" class="st0" d="M22.5,24.1h12.9v37.3H22.5V24.1z"/>
<path id="XMLID_6_" d="M43.6,24.1h12v6.1c1.8-2.5,3.6-4.3,5.4-5.3c1.8-1.1,4.1-1.6,6.7-1.6c3.6,0,6.4,1.2,8.4,3.5c2,2.4,3,6,3,10.9
	v23.7H66.2V40.9c0-2.3-0.4-4-1.2-5c-0.8-1-1.9-1.5-3.3-1.5c-1.6,0-2.8,0.7-3.8,2c-1,1.3-1.5,3.7-1.5,7.1v17.9H43.6V24.1z"/>
<path id="XMLID_8_" d="M83.1,24.1h12.5l5.4,23.5l6.8-23.5h11.6l7.1,23.6l5.4-23.6h12.4l-12.4,37.3h-11.5L113.6,39l-6.6,22.5H95.5
	L83.1,24.1z"/>
<path id="XMLID_10_" d="M184.6,46.3h-25.8c0.2,2.3,0.8,4,1.7,5.1c1.2,1.6,2.9,2.4,4.9,2.4c1.3,0,2.5-0.4,3.6-1.1
	c0.7-0.4,1.4-1.2,2.2-2.4l12.7,1.3c-1.9,3.8-4.3,6.4-7,8.1c-2.7,1.6-6.7,2.4-11.8,2.4c-4.5,0-8-0.7-10.5-2.1
	c-2.6-1.4-4.7-3.6-6.3-6.6c-1.7-3-2.5-6.6-2.5-10.7c0-5.8,1.7-10.6,5-14.2c3.4-3.6,8-5.4,13.9-5.4c4.8,0,8.6,0.8,11.4,2.4
	c2.8,1.6,4.9,4,6.4,7c1.5,3.1,2.2,7.1,2.2,12V46.3z M171.5,39.5c-0.3-2.8-0.9-4.7-2-5.9c-1.1-1.2-2.5-1.8-4.3-1.8
	c-2,0-3.7,0.9-4.9,2.7c-0.8,1.1-1.3,2.8-1.5,5H171.5z"/>
<path id="XMLID_13_" d="M227.8,46.3H202c0.2,2.3,0.8,4,1.7,5.1c1.2,1.6,2.9,2.4,4.9,2.4c1.3,0,2.5-0.4,3.6-1.1
	c0.7-0.4,1.4-1.2,2.2-2.4l12.7,1.3c-1.9,3.8-4.3,6.4-7,8.1c-2.7,1.6-6.7,2.4-11.8,2.4c-4.5,0-8-0.7-10.5-2.1
	c-2.6-1.4-4.7-3.6-6.3-6.6c-1.7-3-2.5-6.6-2.5-10.7c0-5.8,1.7-10.6,5-14.2c3.4-3.6,8-5.4,13.9-5.4c4.8,0,8.6,0.8,11.4,2.4
	c2.8,1.6,4.9,4,6.4,7c1.5,3.1,2.2,7.1,2.2,12V46.3z M214.7,39.5c-0.3-2.8-0.9-4.7-2-5.9c-1.1-1.2-2.5-1.8-4.3-1.8
	c-2,0-3.7,0.9-4.9,2.7c-0.8,1.1-1.3,2.8-1.5,5H214.7z"/>
<path id="XMLID_16_" d="M271,46.3h-25.8c0.2,2.3,0.8,4,1.7,5.1c1.2,1.6,2.9,2.4,4.9,2.4c1.3,0,2.5-0.4,3.6-1.1
	c0.7-0.4,1.4-1.2,2.2-2.4l12.7,1.3c-1.9,3.8-4.3,6.4-7,8.1c-2.7,1.6-6.7,2.4-11.8,2.4c-4.5,0-8-0.7-10.5-2.1
	c-2.6-1.4-4.7-3.6-6.3-6.6c-1.7-3-2.5-6.6-2.5-10.7c0-5.8,1.7-10.6,5-14.2c3.4-3.6,8-5.4,13.9-5.4c4.8,0,8.6,0.8,11.4,2.4
	c2.8,1.6,4.9,4,6.4,7c1.5,3.1,2.2,7.1,2.2,12V46.3z M257.9,39.5c-0.3-2.8-0.9-4.7-2-5.9c-1.1-1.2-2.5-1.8-4.3-1.8
	c-2,0-3.7,0.9-4.9,2.7c-0.8,1.1-1.3,2.8-1.5,5H257.9z"/>
<rect id="XMLID_1_" x="11.3" y="-1.5" transform="matrix(0.7071 0.7071 -0.7071 0.7071 16.7126 -6.9226)" class="st1" width="10.8" height="36.5"/>
</svg>
