<?xml version="1.0" encoding="utf-8"?>
<!-- Generator: Adobe Illustrator 19.0.0, SVG Export Plug-In . SVG Version: 6.00 Build 0)  -->
<svg version="1.1" id="图层_1" xmlns="http://www.w3.org/2000/svg" xmlns:xlink="http://www.w3.org/1999/xlink" x="0px" y="0px"
	 width="116.6px" height="33.3px" viewBox="0 0 116.6 33.3" style="enable-background:new 0 0 116.6 33.3;" xml:space="preserve">
<g id="XMLID_1_">
	<path id="XMLID_19_" d="M8.4,7.5c2.6,0,4.3-1.5,4.3-4.2C12.8,1,11.2,0,9,0C6.4,0,4.4,1.5,4.4,3.9C4.4,6.3,5.9,7.5,8.4,7.5z"/>
	<path id="XMLID_20_" d="M32.6,28c-1,0-1.4,0.7-2.4,0.7c-0.8,0-1.2-0.9-1.2-2.6c0-2.6,1.3-7.5,1.3-11.8c0-2-0.8-3.7-2.6-3.7
		c-4.9,0-7.8,8.2-9.6,11.6c0.4-2,1.5-6.7,1.5-9.6c0-1.2-0.7-2-1.6-2c-3.8,0-4.7,8.4-4.9,14.2c-1.7,1.7-4,3.8-6.3,3.8
		c-1.1,0-1.2-1.1-1.2-2.3c0-5.2,3.2-9.5,3.2-14.4c0-1-0.6-1.3-1.7-1.3c-1.5,0-3.1,0.8-3.4,2.3C2.3,17.5,0,22.7,0,28.3
		c0,3,1.3,4.7,4.4,4.7c3.4,0,6.5-1.9,8.8-3.7c0.2,2,0.8,3.7,2.9,3.7c1.3,0,1.9-0.6,2.4-1.7L25,19.1c-0.4,2.5-0.7,5-0.7,7.7
		c0,3.8,1.3,6.5,4.7,6.5c2.2,0,4.9-1.9,4.9-4.2C33.8,28.3,33.2,28,32.6,28z"/>
	<path id="XMLID_23_" d="M115.6,24.3c-0.4,0-0.8,0.2-1.3,0.7c-1.3,1.1-4.8,3.6-7.5,3.6c-1.3,0-2.4-0.6-3-2.4
		c4.2-1.2,9.5-4.6,9.5-9.8c0-3.6-2.6-5.9-6.2-5.9c-6.3,0-9.6,6.4-9.6,12.7c0,0.4,0,0.9,0,1.3c-0.2,0.1-0.4,0.3-0.7,0.5
		c-1.3,1.1-4.8,3.6-7.5,3.6c-1.3,0-2.4-0.6-3-2.4c4.2-1.2,9.5-4.6,9.5-9.8c0-3.6-2.6-5.9-6.2-5.9c-6.3,0-9.6,6.4-9.6,12.7
		c0,0.4,0,0.9,0,1.3c-0.2,0.1-0.4,0.3-0.7,0.5c-1.3,1.1-4.8,3.6-7.5,3.6c-1.3,0-2.4-0.6-3-2.4c4.2-1.2,9.5-4.6,9.5-9.8
		c0-3.6-2.6-5.9-6.2-5.9c-6.3,0-9.6,6.4-9.6,12.7c0,0.4,0,0.7,0,1.1c-1,0.6-2,1.1-2.8,1.1c-1.8,0-2.4-1.2-2.4-2.8
		c0-4.3,1.3-7,2.2-9.9c0-0.1,0.1-0.3,0.1-0.4c0-1.1-1.1-1.8-2-1.8c-1.5,0-3,0.7-3.4,1.6l-6,13.9l0.1-1.4L50.4,12c0-0.1,0-0.1,0-0.2
		c0-0.8-1-1.2-2.1-1.2c-2.7,0-3.9,1.5-4.9,3.4c-1.7,3.3-2.9,7-4.5,10.7l-0.2,1L40.6,12v-0.2c0-0.9-1.1-1.3-2.2-1.3l-0.4,0
		c-3.3,0-3.3,8.2-3.3,13.5v1.6c0,4.1,0.3,7.3,2.9,7.3c0.6,0,0.9-0.3,1.6-0.8c2.8-2.2,4.5-6.6,5.7-10.8l0.7-2.4c0,0,0,3.8,0,6
		c0,3.9,0.1,8.1,2.7,8.1c2.2,0,4.8-7.2,5.9-10.2c0.1,4.3,1.8,6.8,5,6.8c1.8,0,3.3-0.6,4.6-1.5c1.3,3.1,3.9,4.4,6.8,4.4
		c3.1,0,6.7-1.5,9.5-3.8c0.3-0.3,0.6-0.6,0.9-0.9c1.2,3.3,3.9,4.7,6.9,4.7c3.1,0,6.7-1.5,9.5-3.8c0.3-0.3,0.6-0.6,0.9-0.9
		c1.2,3.3,3.9,4.7,6.9,4.7c3.1,0,6.7-1.5,9.5-3.8c1.3-1.2,1.8-2.4,1.8-3.2C116.6,24.8,116.2,24.3,115.6,24.3z M72.7,14.9
		c1.1,0,1.7,0.9,1.7,2.2c0,2.8-4,4.9-5.8,5.6C68.6,19.6,69.7,14.9,72.7,14.9z M90,14.9c1.1,0,1.7,0.9,1.7,2.2c0,2.8-4,4.9-5.8,5.6
		C85.9,19.6,87,14.9,90,14.9z M107.4,14.9c1.1,0,1.7,0.9,1.7,2.2c0,2.8-4,4.9-5.8,5.6C103.3,19.6,104.4,14.9,107.4,14.9z"/>
</g>
</svg>
