<?xml version="1.0" encoding="utf-8"?>
<!-- Generator: Adobe Illustrator 19.0.0, SVG Export Plug-In . SVG Version: 6.00 Build 0)  -->
<svg version="1.1" id="图层_1" xmlns="http://www.w3.org/2000/svg" xmlns:xlink="http://www.w3.org/1999/xlink" x="0px" y="0px"
	 width="329.5px" height="81.5px" viewBox="-314 240.5 329.5 81.5" style="enable-background:new -314 240.5 329.5 81.5;"
	 xml:space="preserve">
<style type="text/css">
	.st0{fill:#138DEE;}
</style>
<g id="XMLID_4_">
	<path id="XMLID_5_" class="st0" d="M-313,268.5h21.3V322H-313V268.5z"/>
	<path id="XMLID_8_" class="st0" d="M-284.7,322v-27.8c0-13.2,10-24.1,22.9-25.5V322H-284.7z M-256.3,322v-53.3
		c12.9,1.3,22.9,12.2,22.9,25.5V322H-256.3z"/>
	<path id="XMLID_11_" class="st0" d="M-210.1,268.4l16.7,53.5h-23.2l-16.8-53.5H-210.1z M-166.1,321.9l1.3-5l-15.2-48.5h-23
		l15.6,53.5H-166.1z M-161.9,306l9-37.6h-20.6L-161.9,306z"/>
	<path id="XMLID_15_" class="st0" d="M-100.1,300.7c-2.2,12-12.6,21.3-25.1,21.3h-25.7v-27.8c0-13.2,10-24.1,22.9-25.5v32H-100.1z
		 M-100.1,294.2v1h-22.4v-26.5C-109.7,270-100.1,280.9-100.1,294.2z"/>
	<path id="XMLID_18_" class="st0" d="M-42.3,300.7c-2.2,12-12.6,21.3-25.1,21.3h-25.7v-27.8c0-13.2,10-24.1,22.9-25.5v32H-42.3z
		 M-42.3,294.2v1h-22.4v-26.5C-51.9,270-42.3,280.9-42.3,294.2z"/>
	<path id="XMLID_21_" class="st0" d="M15.5,300.7C13.3,312.7,2.9,322-9.6,322h-25.7v-27.8c0-13.2,10-24.1,22.9-25.5v32H15.5z
		 M15.5,294.2v1H-6.9v-26.5C5.9,270,15.5,280.9,15.5,294.2z"/>
	<circle id="XMLID_2_" class="st0" cx="-302.2" cy="252.3" r="11.8"/>
</g>
</svg>
